<?xml version="1.0" standalone="no"?>
<!DOCTYPE svg PUBLIC "-//W3C//DTD SVG 20010904//EN"
 "http://www.w3.org/TR/2001/REC-SVG-20010904/DTD/svg10.dtd">
<svg version="1.0" xmlns="http://www.w3.org/2000/svg"
 width="504.000000pt" height="504.000000pt" viewBox="0 0 504.000000 504.000000"
 preserveAspectRatio="xMidYMid meet">
<metadata>
Created by potrace 1.11, written by Peter Selinger 2001-2013
</metadata>
<g transform="translate(0.000000,504.000000) scale(0.100000,-0.100000)"
fill="#000000" stroke="none">
<path d="M850 5029 c-91 -12 -198 -67 -269 -138 -103 -103 -141 -222 -141
-437 l0 -94 -110 0 c-127 0 -171 -13 -194 -59 -21 -40 -20 -69 4 -108 25 -41
67 -53 198 -53 l102 0 0 -320 0 -320 -102 0 c-131 0 -173 -12 -198 -53 -25
-41 -25 -73 0 -114 25 -41 67 -53 198 -53 l102 0 0 -330 0 -330 -109 0 c-116
0 -152 -8 -188 -42 -27 -26 -30 -73 -7 -107 28 -39 73 -51 194 -51 l110 0 0
-330 0 -330 -110 0 c-127 0 -171 -13 -194 -59 -21 -40 -20 -69 4 -108 25 -41
67 -53 198 -53 l102 0 0 -320 0 -320 -110 0 c-127 0 -171 -13 -194 -59 -21
-40 -20 -69 4 -108 25 -41 67 -53 196 -53 l101 0 6 -143 c3 -78 12 -165 20
-193 49 -175 215 -312 407 -335 55 -6 622 -9 1620 -7 l1535 3 65 23 c177 63
296 209 321 392 4 36 8 165 9 287 l0 222 -107 151 -108 151 -5 -423 c-5 -413
-6 -424 -27 -458 -31 -50 -71 -86 -123 -109 -45 -20 -59 -21 -1357 -21 l-1313
0 0 2300 0 2300 1306 0 c973 0 1317 -3 1346 -12 51 -15 121 -77 147 -131 21
-43 21 -50 21 -1044 l0 -1001 73 -12 c39 -7 89 -15 110 -20 l38 -8 -3 1031 -3
1032 -23 59 c-56 148 -153 244 -304 298 l-63 23 -1555 1 c-855 1 -1584 -2
-1620 -7z m430 -2509 l0 -2300 -212 0 c-202 0 -216 1 -263 24 -28 12 -65 39
-83 60 -54 61 -62 94 -62 242 l0 134 61 0 c50 0 66 -4 90 -24 35 -30 105 -42
151 -27 40 13 92 64 107 104 26 69 0 155 -60 198 -61 43 -167 35 -208 -15 -10
-12 -32 -16 -77 -16 l-64 0 0 320 0 320 61 0 c50 0 66 -4 90 -24 66 -56 177
-37 235 40 25 32 29 47 29 99 0 52 -4 67 -28 98 -15 20 -41 44 -57 52 -57 29
-153 14 -189 -29 -10 -12 -32 -16 -77 -16 l-64 0 0 330 0 330 63 0 c54 0 67
-4 86 -24 33 -35 90 -49 144 -35 82 20 132 90 125 171 -13 133 -166 198 -267
113 -24 -21 -40 -25 -90 -25 l-61 0 0 330 0 330 64 0 c45 0 67 -4 77 -16 43
-52 144 -60 206 -15 112 81 90 241 -41 295 -41 18 -52 19 -94 7 -26 -7 -56
-21 -68 -32 -15 -14 -35 -19 -82 -19 l-62 0 0 320 0 320 64 0 c47 0 67 -4 77
-17 38 -45 132 -55 194 -20 102 58 113 194 22 274 -59 51 -167 53 -212 3 -14
-16 -31 -20 -82 -20 l-63 0 0 134 c0 148 8 181 62 242 18 21 55 48 83 60 47
23 61 24 263 24 l212 0 0 -2300z"/>
<path d="M2043 4038 l-113 -112 -68 66 c-37 36 -77 71 -89 77 -31 16 -69 4
-98 -31 -47 -56 -33 -88 102 -220 54 -53 111 -100 126 -103 54 -14 80 4 230
154 143 144 147 149 147 190 0 56 -33 91 -86 91 -34 0 -47 -10 -151 -112z"/>
<path d="M2494 4033 c-12 -2 -34 -17 -50 -34 -41 -43 -40 -98 4 -142 l32 -32
653 -3 c445 -2 664 0 689 8 69 20 101 102 62 159 -36 51 -35 51 -726 50 -354
-1 -653 -4 -664 -6z"/>
<path d="M2044 3228 l-114 -112 -74 72 c-67 65 -78 72 -114 72 -33 0 -45 -6
-67 -32 -47 -56 -34 -85 98 -215 160 -159 158 -159 370 54 125 127 137 143
137 175 0 50 -8 66 -41 83 -58 31 -74 23 -195 -97z"/>
<path d="M2494 3213 c-12 -2 -34 -17 -50 -34 -41 -43 -40 -98 4 -142 l32 -32
653 -3 c445 -2 664 0 689 8 69 20 101 102 62 159 -36 51 -35 51 -726 50 -354
-1 -653 -4 -664 -6z"/>
<path d="M3442 2683 c-61 -30 -96 -109 -74 -170 5 -16 49 -85 97 -153 100
-142 124 -177 218 -312 l68 -97 -63 -44 c-35 -24 -153 -107 -263 -183 -710
-495 -927 -650 -977 -697 -134 -128 -146 -271 -33 -396 48 -53 89 -77 146 -85
82 -12 191 28 324 117 82 55 1000 696 1103 770 46 32 85 57 87 56 2 -2 85
-121 185 -264 99 -143 194 -272 210 -286 41 -39 99 -46 155 -19 79 38 80 40
155 470 42 238 66 375 116 645 38 205 38 265 -2 334 -60 107 -42 101 -646 207
-293 51 -569 100 -613 109 -101 19 -151 19 -193 -2z"/>
<path d="M2044 2418 l-114 -112 -74 72 c-64 63 -79 72 -111 72 -64 0 -110 -64
-87 -122 12 -30 206 -220 239 -234 56 -24 86 -3 271 188 93 96 112 121 112
146 0 43 -18 78 -47 91 -54 25 -71 16 -189 -101z"/>
<path d="M2494 2413 c-12 -2 -34 -17 -50 -34 -41 -43 -40 -98 4 -142 l32 -32
526 -3 c426 -2 524 0 518 10 -4 7 -39 57 -77 111 l-69 97 -431 -1 c-238 -1
-442 -4 -453 -6z"/>
</g>
</svg>
