<?xml version="1.0" encoding="utf-8"?>
<!DOCTYPE svg  PUBLIC '-//W3C//DTD SVG 1.1//EN'  'http://www.w3.org/Graphics/SVG/1.1/DTD/svg11.dtd'>
<svg enable-background="new 0 0 759.832 759.832" version="1.1" viewBox="0 0 759.83 759.83" xml:space="preserve"
     xmlns="http://www.w3.org/2000/svg">
<circle id="background" fill-rule="evenodd" clip-rule="evenodd" fill="#59B100" cx="379.916" cy="379.916" r="369"/>
    <path id="notebook" fill-rule="evenodd" clip-rule="evenodd" d="M574.753,510.917c6.332,8.955,12.725,17.868,18.911,26.924
	c0.731,1.07,0.429,2.918,0.431,4.405c0.026,13.669,0.105,27.338-0.006,41.006c-0.229,27.865-19.529,47.733-47.38,47.787
	c-100.349,0.195-200.699,0.193-301.047-0.015c-20.649-0.043-36.038-9.808-44.518-28.811c-2.413-5.406-2.738-11.866-3.367-17.91
	c-0.531-5.113-0.353-10.339-0.048-15.487c0.252-4.271-1.013-6.123-5.568-5.779c-4.641,0.351-9.329,0.095-13.997,0.071
	c-8.458-0.042-13.188-3.785-13.068-10.312c0.118-6.44,4.643-9.998,12.833-10.046c5-0.028,10.006-0.139,15.001,0.035
	c3.323,0.116,4.804-0.889,4.78-4.504c-0.125-18.835-0.14-37.673,0.012-56.508c0.031-3.887-1.56-4.859-5.075-4.729
	c-5.327,0.197-10.667,0.117-16,0.025c-7.215-0.124-11.678-4.167-11.552-10.313c0.122-5.954,4.491-9.877,11.347-10.003
	c5.5-0.102,11.005-0.156,16.501,0.015c3.336,0.104,4.791-0.915,4.768-4.518c-0.123-19.503-0.138-39.007,0.013-58.509
	c0.03-3.9-1.585-4.835-5.087-4.719c-5.661,0.188-11.337,0.172-17-0.007c-6.866-0.217-10.532-3.623-10.526-9.411
	c0.006-5.251,3.785-8.615,10.381-8.832c5.995-0.196,12.002-0.149,18-0.042c2.935,0.053,4.205-0.978,4.193-4.05
	c-0.076-19.835-0.072-39.672-0.001-59.509c0.01-2.978-1.066-4.21-4.097-4.146c-5.831,0.124-11.67,0.128-17.501-0.019
	c-6.667-0.167-11.157-4.507-10.988-10.354c0.168-5.813,4.387-9.758,10.919-9.922c5.831-0.146,11.669-0.136,17.501-0.021
	c2.96,0.059,4.179-1.027,4.167-4.075c-0.076-19.169-0.075-38.339-0.001-57.508c0.012-3.003-1.118-4.182-4.123-4.12
	c-5.832,0.121-11.67,0.127-17.501-0.02c-6.643-0.166-11.151-4.544-10.965-10.38c0.187-5.826,4.397-9.737,10.94-9.898
	c5.665-0.139,11.339-0.182,17,0.004c3.444,0.113,4.655-1.125,4.69-4.616c0.086-8.473-0.136-17.036,1.01-25.393
	c2.715-19.816,19.539-33.753,36.896-36.959c4.062-0.75,8.263-1.048,12.4-1.05c99.016-0.057,198.031-0.066,297.047-0.027
	c23.509,0.01,40.88,12.304,46.998,33.467c1.364,4.719,1.939,9.824,1.949,14.752c0.127,63.177,0.086,126.353,0.073,189.53
	c0,1.628-0.173,3.257-0.313,5.729c-6.201-1.104-12.001-2.04-17.739-3.264c-0.896-0.191-1.925-1.594-2.165-2.608
	c-0.374-1.582-0.137-3.312-0.137-4.978c-0.003-61.343,0.001-122.686-0.005-184.029c-0.002-16.82-10.05-27.252-26.897-27.948
	c-2.989-0.123-5.98-0.287-8.972-0.288c-80.346-0.016-160.692-0.014-241.038-0.01c-6.777,0-6.789,0.014-6.789,6.896
	c-0.002,149.357-0.002,298.714,0,448.071c0,6.757,0.014,6.77,6.915,6.77c83.013,0.003,166.026,0.007,249.04-0.001
	c16.244-0.002,27.727-11.426,27.739-27.583c0.018-22.17,0.004-44.34,0.004-66.51c0-1.784,0-3.568,0-5.352
	C574.08,511.181,574.416,511.049,574.753,510.917z M219.024,389.385c0,22.635,0,44.71,0,66.718
	c7.995,1.374,9.534,1.055,15.484-3.077c6.737-4.678,16.383-3.914,21.492,1.703c6.182,6.794,6.126,16.781-0.132,23.536
	c-5.159,5.568-16.124,6.994-21.938,1.847c-4.857-4.3-9.747-2.67-14.949-2.772c0,21.96,0,43.375,0,65.098
	c5.47,0.066,10.315,1.352,15.168-2.896c6.425-5.621,16.833-4.275,22.203,1.709c5.621,6.266,5.465,16.491-0.132,22.831
	c-5.562,6.298-16.564,7.121-22.161,2.138c-4.86-4.327-9.729-2.836-15.408-2.767c0,6.972,0.653,13.677-0.132,20.21
	c-1.777,14.774,12.986,27.65,27.422,27.161c9.824-0.333,19.681-0.36,29.499,0.056c5.266,0.224,6.335-1.687,6.331-6.578
	c-0.118-149.527-0.095-299.057-0.109-448.586c0-1.92-0.202-3.841-0.327-6.069c-13.416,0-26.236-0.045-39.057,0.015
	c-10.041,0.047-21.898,8.871-23.098,18.731c-1.109,9.117-0.236,18.474-0.236,28.228c5.049-0.606,9.703,1.628,14.09-2.319
	c6.269-5.64,16.986-4.906,22.746,0.979c5.713,5.836,6.351,16,1.375,21.901c-6.062,7.189-16.171,9.01-23.09,2.988
	c-4.903-4.268-9.716-2.857-15.129-2.813c0,21.773,0,43.188,0,65.127c5.332-0.195,10.051,1.188,15.121-2.811
	c7.187-5.667,15.955-4.154,21.918,2.057c6.024,6.274,6.034,16.392,0.46,22.744c-5.472,6.236-15.86,7.53-22.457,1.667
	c-4.888-4.345-9.737-2.693-15.033-2.879c0,22.612,0,44.694,0,67.107c5.614,0.18,10.651,1.48,15.484-3.193
	c5.879-5.686,16.507-4.249,22.094,1.969c5.34,5.942,5.233,15.938-0.233,21.901c-5.399,5.888-16.008,7.249-21.709,1.674
	C229.771,388.017,224.743,389.17,219.024,389.385z"/>
    <path id="link_x5F_top" fill-rule="evenodd" clip-rule="evenodd" d="M468.662,228.679c20.975,0.006,41.948-0.013,62.922,0.021
	c4.379,0.007,8.141,1.161,10.218,5.623c1.816,3.9,1.751,8.066-1.203,10.642c-2.58,2.249-6.635,3.831-10.074,3.899
	c-18.637,0.369-37.283,0.179-55.927,0.178c-22.806-0.002-45.61,0.036-68.415-0.033c-7.203-0.022-11.224-3.566-11.444-9.685
	c-0.234-6.498,3.803-10.558,11.003-10.606c15.813-0.107,31.627-0.04,47.44-0.043C458.342,228.673,463.503,228.674,468.662,228.679z"
    />
    <path id="link_x5F_middle" fill-rule="evenodd" clip-rule="evenodd" d="M468.438,331.055c-20.808-0.006-41.615,0.053-62.423-0.036
	c-7.82-0.033-12.208-4.779-11.162-11.83c0.685-4.618,3.436-7.452,8.073-8.25c1.464-0.252,2.984-0.236,4.479-0.236
	c40.949-0.012,81.899-0.097,122.848,0.149c3.462,0.021,7.565,1.491,10.193,3.692c2.977,2.495,3.214,6.667,1.479,10.616
	c-1.774,4.04-5.011,5.709-9.069,5.81c-7.153,0.179-14.314,0.085-21.472,0.088C497.07,331.065,482.755,331.06,468.438,331.055z"/>
    <path id="link_x5F_bottom" fill-rule="evenodd" clip-rule="evenodd" d="M505.236,410.594c-1.799,0.231-2.74,0.458-3.682,0.459
	c-31.971,0.018-63.942,0.047-95.914-0.018c-6.137-0.013-9.985-3.138-10.783-8.228c-1.052-6.71,3.005-11.86,9.935-12.016
	c9.653-0.217,19.314-0.078,28.973-0.08c17.65-0.004,35.302,0.067,52.952-0.061c3.323-0.024,5.425,0.912,7.255,3.859
	C497.258,399.805,501.098,404.754,505.236,410.594z"/>
    <path id="check_x5F_bottom" fill-rule="evenodd" clip-rule="evenodd" fill="#FFFFFF" d="M345.345,402.192
	c7.117-7.158,13.112-13.586,19.592-19.479c2.111-1.922,5.626-3.604,8.247-3.29c2.559,0.306,5.989,2.863,6.856,5.23
	c0.965,2.632,0.602,7.199-1.155,9.132c-8.352,9.189-17.141,18.021-26.246,26.473c-5.587,5.188-10.757,3.912-17.528-3.12
	c-4.604-4.782-9.169-9.601-13.773-14.383c-4.187-4.349-4.441-9.332-0.633-13.174c3.933-3.968,9.312-3.886,13.603,0.495
	C338,393.846,341.429,397.872,345.345,402.192z"/>
    <path id="check_x5F_top" fill-rule="evenodd" clip-rule="evenodd" fill="#FFFFFF" d="M345.458,239.97
	c6.838-6.918,12.868-13.078,18.968-19.169c4.639-4.633,10.354-5.224,14.049-1.571c3.743,3.702,3.488,9.571-1.018,14.222
	c-7.648,7.895-15.4,15.697-23.291,23.352c-5.729,5.559-10.913,5.531-16.559,0.081c-5.512-5.32-10.907-10.767-16.215-16.292
	c-4.482-4.666-4.511-9.561-0.351-13.592c4.016-3.891,8.633-3.72,13.137,0.804C337.917,231.556,341.395,235.565,345.458,239.97z"/>
    <path id="check_x5F_middle" fill-rule="evenodd" clip-rule="evenodd" fill="#FFFFFF" d="M345.397,321.076
	c7.046-7.096,13.36-13.02,19.146-19.42c4.508-4.987,10.459-4.373,14.15-1.081c3.641,3.249,2.921,9.79-1.403,14.148
	c-7.509,7.567-14.951,15.204-22.583,22.646c-6.556,6.394-11.391,6.276-17.946-0.183c-5.221-5.143-10.374-10.357-15.495-15.599
	c-4.206-4.306-4.347-9.297-0.493-13.198c3.769-3.816,9.006-3.707,13.275,0.335c1.935,1.833,3.844,3.699,5.647,5.658
	C341.499,316.337,343.155,318.427,345.397,321.076z"/>
    <path id="arrow" fill-rule="evenodd" clip-rule="evenodd" fill="#FFFFFF" d="M529.257,437.783
	c-6.92-9.945-13.366-19.235-19.84-28.507c-5.242-7.51-10.506-15.004-15.78-22.491c-3.733-5.3-5.338-10.866-1.38-16.676
	c3.963-5.815,9.662-7.896,16.56-6.677c19.329,3.418,38.652,6.869,57.983,10.278c19.986,3.524,39.969,7.072,59.973,10.497
	c10.982,1.879,20.609,14.311,18.776,25.238c-4.098,24.443-8.507,48.835-12.789,73.249c-2.615,14.909-5.111,29.842-7.886,44.722
	c-1.775,9.522-7.507,14.478-15.743,14.302c-5.114-0.107-8.751-2.56-11.614-6.66c-11.057-15.84-22.298-31.551-33.216-47.485
	c-2.547-3.717-4.292-4.234-8.161-1.523c-39.687,27.813-79.398,55.591-119.431,82.898c-6.13,4.181-13.709,6.842-21.006,8.556
	c-9.656,2.267-17.033-2.825-22.542-10.524c-5.724-7.998-8.411-17.076-2.752-25.646c4.569-6.921,10.552-13.488,17.271-18.313
	c31.65-22.728,63.771-44.798,95.72-67.111C511.838,450.016,520.256,444.095,529.257,437.783z"/>
</svg>
